<mxfile host="app.diagrams.net" agent="Mozilla/5.0 (Windows NT 10.0; Win64; x64) AppleWebKit/537.36 (KHTML, like Gecko) Chrome/131.0.0.0 Safari/537.36" version="24.8.6">
  <diagram name="Página-1" id="PvmUoL0YQl5QAoJYPTls">
    <mxGraphModel dx="1050" dy="522" grid="1" gridSize="10" guides="1" tooltips="1" connect="1" arrows="1" fold="1" page="1" pageScale="1" pageWidth="827" pageHeight="1169" math="0" shadow="0">
      <root>
        <mxCell id="0" />
        <mxCell id="1" parent="0" />
        <mxCell id="Y2uVDxIM86a6LWv00-nF-7" value="" style="edgeStyle=orthogonalEdgeStyle;rounded=0;orthogonalLoop=1;jettySize=auto;html=1;" parent="1" source="Y2uVDxIM86a6LWv00-nF-1" target="Y2uVDxIM86a6LWv00-nF-6" edge="1">
          <mxGeometry relative="1" as="geometry" />
        </mxCell>
        <mxCell id="Y2uVDxIM86a6LWv00-nF-11" value="" style="edgeStyle=orthogonalEdgeStyle;rounded=0;orthogonalLoop=1;jettySize=auto;html=1;" parent="1" source="Y2uVDxIM86a6LWv00-nF-1" target="Y2uVDxIM86a6LWv00-nF-4" edge="1">
          <mxGeometry relative="1" as="geometry">
            <Array as="points">
              <mxPoint x="70" y="180" />
              <mxPoint x="70" y="140" />
              <mxPoint x="85" y="140" />
            </Array>
          </mxGeometry>
        </mxCell>
        <mxCell id="Y2uVDxIM86a6LWv00-nF-16" value="" style="edgeStyle=orthogonalEdgeStyle;rounded=0;orthogonalLoop=1;jettySize=auto;html=1;" parent="1" source="Y2uVDxIM86a6LWv00-nF-1" target="Y2uVDxIM86a6LWv00-nF-3" edge="1">
          <mxGeometry relative="1" as="geometry" />
        </mxCell>
        <mxCell id="Y2uVDxIM86a6LWv00-nF-1" value="PESSOA" style="rounded=0;whiteSpace=wrap;html=1;" parent="1" vertex="1">
          <mxGeometry x="110" y="150" width="100" height="70" as="geometry" />
        </mxCell>
        <mxCell id="Y2uVDxIM86a6LWv00-nF-19" value="" style="edgeStyle=orthogonalEdgeStyle;rounded=0;orthogonalLoop=1;jettySize=auto;html=1;" parent="1" source="Y2uVDxIM86a6LWv00-nF-2" target="Y2uVDxIM86a6LWv00-nF-17" edge="1">
          <mxGeometry relative="1" as="geometry" />
        </mxCell>
        <mxCell id="Y2uVDxIM86a6LWv00-nF-32" value="" style="edgeStyle=orthogonalEdgeStyle;rounded=0;orthogonalLoop=1;jettySize=auto;html=1;" parent="1" source="Y2uVDxIM86a6LWv00-nF-2" target="Y2uVDxIM86a6LWv00-nF-18" edge="1">
          <mxGeometry relative="1" as="geometry" />
        </mxCell>
        <mxCell id="Y2uVDxIM86a6LWv00-nF-2" value="BANCO" style="rounded=0;whiteSpace=wrap;html=1;" parent="1" vertex="1">
          <mxGeometry x="400" y="110" width="80" height="60" as="geometry" />
        </mxCell>
        <mxCell id="Y2uVDxIM86a6LWv00-nF-3" value="NOME" style="ellipse;whiteSpace=wrap;html=1;" parent="1" vertex="1">
          <mxGeometry x="140" y="20" width="60" height="80" as="geometry" />
        </mxCell>
        <mxCell id="Y2uVDxIM86a6LWv00-nF-4" value="LICENÇA" style="ellipse;whiteSpace=wrap;html=1;" parent="1" vertex="1">
          <mxGeometry x="20" y="20" width="70" height="80" as="geometry" />
        </mxCell>
        <mxCell id="Y2uVDxIM86a6LWv00-nF-10" value="" style="edgeStyle=orthogonalEdgeStyle;rounded=0;orthogonalLoop=1;jettySize=auto;html=1;" parent="1" source="Y2uVDxIM86a6LWv00-nF-5" target="Y2uVDxIM86a6LWv00-nF-1" edge="1">
          <mxGeometry relative="1" as="geometry">
            <Array as="points">
              <mxPoint x="130" y="280" />
            </Array>
          </mxGeometry>
        </mxCell>
        <mxCell id="Y2uVDxIM86a6LWv00-nF-5" value="CPF" style="ellipse;whiteSpace=wrap;html=1;" parent="1" vertex="1">
          <mxGeometry x="10" y="200" width="80" height="60" as="geometry" />
        </mxCell>
        <mxCell id="Y2uVDxIM86a6LWv00-nF-6" value="ENDERENÇO" style="ellipse;whiteSpace=wrap;html=1;" parent="1" vertex="1">
          <mxGeometry x="230" y="40" width="90" height="60" as="geometry" />
        </mxCell>
        <mxCell id="Y2uVDxIM86a6LWv00-nF-17" value="ENOME" style="ellipse;whiteSpace=wrap;html=1;" parent="1" vertex="1">
          <mxGeometry x="414" y="10" width="100" height="60" as="geometry" />
        </mxCell>
        <mxCell id="Y2uVDxIM86a6LWv00-nF-18" value="EENDEREÇO" style="ellipse;whiteSpace=wrap;html=1;" parent="1" vertex="1">
          <mxGeometry x="570" y="40" width="110" height="70" as="geometry" />
        </mxCell>
        <mxCell id="Y2uVDxIM86a6LWv00-nF-23" value="" style="edgeStyle=orthogonalEdgeStyle;rounded=0;orthogonalLoop=1;jettySize=auto;html=1;" parent="1" source="Y2uVDxIM86a6LWv00-nF-21" target="Y2uVDxIM86a6LWv00-nF-22" edge="1">
          <mxGeometry relative="1" as="geometry" />
        </mxCell>
        <mxCell id="Y2uVDxIM86a6LWv00-nF-25" value="" style="edgeStyle=orthogonalEdgeStyle;rounded=0;orthogonalLoop=1;jettySize=auto;html=1;" parent="1" source="Y2uVDxIM86a6LWv00-nF-21" target="Y2uVDxIM86a6LWv00-nF-24" edge="1">
          <mxGeometry relative="1" as="geometry" />
        </mxCell>
        <mxCell id="Y2uVDxIM86a6LWv00-nF-21" value="COMPANY" style="rounded=0;whiteSpace=wrap;html=1;" parent="1" vertex="1">
          <mxGeometry x="610" y="297" width="90" height="60" as="geometry" />
        </mxCell>
        <mxCell id="Y2uVDxIM86a6LWv00-nF-22" value="CNOME" style="ellipse;whiteSpace=wrap;html=1;" parent="1" vertex="1">
          <mxGeometry x="680" y="180" width="90" height="70" as="geometry" />
        </mxCell>
        <mxCell id="Y2uVDxIM86a6LWv00-nF-24" value="CENDERENÇO" style="ellipse;whiteSpace=wrap;html=1;" parent="1" vertex="1">
          <mxGeometry x="690" y="380" width="100" height="80" as="geometry" />
        </mxCell>
        <mxCell id="Y2uVDxIM86a6LWv00-nF-26" value="OWNER" style="rounded=0;whiteSpace=wrap;html=1;" parent="1" vertex="1">
          <mxGeometry x="337" y="440" width="120" height="60" as="geometry" />
        </mxCell>
        <mxCell id="Y2uVDxIM86a6LWv00-nF-28" value="" style="edgeStyle=orthogonalEdgeStyle;rounded=0;orthogonalLoop=1;jettySize=auto;html=1;" parent="1" source="Y2uVDxIM86a6LWv00-nF-27" target="Y2uVDxIM86a6LWv00-nF-21" edge="1">
          <mxGeometry relative="1" as="geometry" />
        </mxCell>
        <mxCell id="Y2uVDxIM86a6LWv00-nF-29" value="" style="edgeStyle=orthogonalEdgeStyle;rounded=0;orthogonalLoop=1;jettySize=auto;html=1;" parent="1" source="Y2uVDxIM86a6LWv00-nF-27" target="Y2uVDxIM86a6LWv00-nF-26" edge="1">
          <mxGeometry relative="1" as="geometry" />
        </mxCell>
        <mxCell id="Y2uVDxIM86a6LWv00-nF-30" value="" style="edgeStyle=orthogonalEdgeStyle;rounded=0;orthogonalLoop=1;jettySize=auto;html=1;" parent="1" source="Y2uVDxIM86a6LWv00-nF-27" target="Y2uVDxIM86a6LWv00-nF-1" edge="1">
          <mxGeometry relative="1" as="geometry" />
        </mxCell>
        <mxCell id="Y2uVDxIM86a6LWv00-nF-31" value="" style="edgeStyle=orthogonalEdgeStyle;rounded=0;orthogonalLoop=1;jettySize=auto;html=1;" parent="1" source="Y2uVDxIM86a6LWv00-nF-27" target="Y2uVDxIM86a6LWv00-nF-2" edge="1">
          <mxGeometry relative="1" as="geometry" />
        </mxCell>
        <mxCell id="Y2uVDxIM86a6LWv00-nF-27" value="*" style="ellipse;whiteSpace=wrap;html=1;aspect=fixed;" parent="1" vertex="1">
          <mxGeometry x="360" y="290" width="60" height="60" as="geometry" />
        </mxCell>
      </root>
    </mxGraphModel>
  </diagram>
</mxfile>
